<svg width="33" height="39" viewBox="0 0 33 39" fill="none" xmlns="http://www.w3.org/2000/svg">
<path d="M30 34.392C30 36.9369 27.9369 39 25.392 39H4.608C2.06307 39 0 36.9369 0 34.392V7.608C0 5.06307 2.06307 3 4.608 3H20.8929L30 12L30 34.392Z" fill="url(#paint0_linear_5615_409)"/>
<path d="M7 19H23" stroke="#90939A" stroke-width="1.6" stroke-linecap="round"/>
<path d="M7 15H23" stroke="#90939A" stroke-width="1.6" stroke-linecap="round"/>
<path d="M7 23H15" stroke="#90939A" stroke-width="1.6" stroke-linecap="round"/>
<g filter="url(#filter0_d_5615_409)">
<path fill-rule="evenodd" clip-rule="evenodd" d="M21 3V9.1875C21 10.875 22.344 12 24 12H30L21 3Z" fill="url(#paint1_linear_5615_409)" shape-rendering="crispEdges"/>
</g>
<path d="M7.84668 35H6.29883L6.30859 33.8574H7.84668C8.23079 33.8574 8.55469 33.7712 8.81836 33.5986C9.08203 33.4229 9.2806 33.1673 9.41406 32.832C9.55078 32.4967 9.61914 32.0915 9.61914 31.6162V31.2695C9.61914 30.9049 9.58008 30.5843 9.50195 30.3076C9.42708 30.0309 9.31478 29.7982 9.16504 29.6094C9.0153 29.4206 8.83138 29.279 8.61328 29.1846C8.39518 29.0869 8.14453 29.0381 7.86133 29.0381H6.26953V27.8906H7.86133C8.33659 27.8906 8.77116 27.972 9.16504 28.1348C9.56217 28.2943 9.9056 28.5238 10.1953 28.8232C10.485 29.1227 10.708 29.4808 10.8643 29.8975C11.0238 30.3109 11.1035 30.7715 11.1035 31.2793V31.6162C11.1035 32.1208 11.0238 32.5814 10.8643 32.998C10.708 33.4147 10.485 33.7728 10.1953 34.0723C9.90885 34.3685 9.56543 34.598 9.16504 34.7607C8.7679 34.9202 8.32845 35 7.84668 35ZM7.12891 27.8906V35H5.66406V27.8906H7.12891ZM18.0078 31.2793V31.6162C18.0078 32.1566 17.9346 32.6416 17.7881 33.0713C17.6416 33.501 17.4349 33.8672 17.168 34.1699C16.901 34.4694 16.582 34.6989 16.2109 34.8584C15.8431 35.0179 15.4346 35.0977 14.9854 35.0977C14.5394 35.0977 14.1309 35.0179 13.7598 34.8584C13.3919 34.6989 13.0729 34.4694 12.8027 34.1699C12.5326 33.8672 12.3226 33.501 12.1729 33.0713C12.0264 32.6416 11.9531 32.1566 11.9531 31.6162V31.2793C11.9531 30.7357 12.0264 30.2507 12.1729 29.8242C12.3193 29.3945 12.526 29.0283 12.793 28.7256C13.0632 28.4229 13.3822 28.1917 13.75 28.0322C14.1211 27.8727 14.5296 27.793 14.9756 27.793C15.4248 27.793 15.8333 27.8727 16.2012 28.0322C16.5723 28.1917 16.8913 28.4229 17.1582 28.7256C17.4284 29.0283 17.6367 29.3945 17.7832 29.8242C17.9329 30.2507 18.0078 30.7357 18.0078 31.2793ZM16.5283 31.6162V31.2695C16.5283 30.8919 16.4941 30.5599 16.4258 30.2734C16.3574 29.987 16.2565 29.7461 16.123 29.5508C15.9896 29.3555 15.8268 29.209 15.6348 29.1113C15.4427 29.0104 15.223 28.96 14.9756 28.96C14.7282 28.96 14.5085 29.0104 14.3164 29.1113C14.1276 29.209 13.9665 29.3555 13.833 29.5508C13.7028 29.7461 13.6035 29.987 13.5352 30.2734C13.4668 30.5599 13.4326 30.8919 13.4326 31.2695V31.6162C13.4326 31.9906 13.4668 32.3226 13.5352 32.6123C13.6035 32.8988 13.7044 33.1413 13.8379 33.3398C13.9714 33.5352 14.1341 33.6833 14.3262 33.7842C14.5182 33.8851 14.738 33.9355 14.9854 33.9355C15.2327 33.9355 15.4525 33.8851 15.6445 33.7842C15.8366 33.6833 15.9977 33.5352 16.1279 33.3398C16.2581 33.1413 16.3574 32.8988 16.4258 32.6123C16.4941 32.3226 16.5283 31.9906 16.5283 31.6162ZM23.1836 32.6416H24.6436C24.6143 33.1201 24.4824 33.5449 24.248 33.916C24.0169 34.2871 23.693 34.5768 23.2764 34.7852C22.863 34.9935 22.3649 35.0977 21.7822 35.0977C21.3265 35.0977 20.918 35.0195 20.5566 34.8633C20.1953 34.7038 19.8861 34.4759 19.6289 34.1797C19.375 33.8835 19.1813 33.5254 19.0479 33.1055C18.9144 32.6855 18.8477 32.2152 18.8477 31.6943V31.2012C18.8477 30.6803 18.916 30.21 19.0527 29.79C19.1927 29.3669 19.3913 29.0072 19.6484 28.7109C19.9089 28.4147 20.2197 28.1868 20.5811 28.0273C20.9424 27.8678 21.346 27.7881 21.792 27.7881C22.3844 27.7881 22.8841 27.8955 23.291 28.1104C23.7012 28.3252 24.0186 28.6214 24.2432 28.999C24.471 29.3766 24.6077 29.8063 24.6533 30.2881H23.1885C23.1722 30.0016 23.1152 29.7591 23.0176 29.5605C22.9199 29.3587 22.7718 29.2074 22.5732 29.1064C22.3779 29.0023 22.1175 28.9502 21.792 28.9502C21.5479 28.9502 21.3346 28.9958 21.1523 29.0869C20.9701 29.1781 20.8171 29.3164 20.6934 29.502C20.5697 29.6875 20.4769 29.9219 20.415 30.2051C20.3564 30.485 20.3271 30.8138 20.3271 31.1914V31.6943C20.3271 32.0622 20.3548 32.3861 20.4102 32.666C20.4655 32.9427 20.5501 33.1771 20.6641 33.3691C20.7812 33.5579 20.931 33.7012 21.1133 33.7988C21.2988 33.8932 21.5218 33.9404 21.7822 33.9404C22.0882 33.9404 22.3405 33.8916 22.5391 33.7939C22.7376 33.6963 22.889 33.5514 22.9932 33.3594C23.1006 33.1673 23.1641 32.9281 23.1836 32.6416Z" fill="#90939A"/>
<defs>
<filter id="filter0_d_5615_409" x="17.544" y="0.696" width="14.76" height="14.76" filterUnits="userSpaceOnUse" color-interpolation-filters="sRGB">
<feFlood flood-opacity="0" result="BackgroundImageFix"/>
<feColorMatrix in="SourceAlpha" type="matrix" values="0 0 0 0 0 0 0 0 0 0 0 0 0 0 0 0 0 0 127 0" result="hardAlpha"/>
<feOffset dx="-0.576" dy="0.576"/>
<feGaussianBlur stdDeviation="1.44"/>
<feComposite in2="hardAlpha" operator="out"/>
<feColorMatrix type="matrix" values="0 0 0 0 0 0 0 0 0 0 0 0 0 0 0 0 0 0 0.25 0"/>
<feBlend mode="normal" in2="BackgroundImageFix" result="effect1_dropShadow_5615_409"/>
<feBlend mode="normal" in="SourceGraphic" in2="effect1_dropShadow_5615_409" result="shape"/>
</filter>
<linearGradient id="paint0_linear_5615_409" x1="5.35714" y1="38.4" x2="28.2158" y2="10.2679" gradientUnits="userSpaceOnUse">
<stop stop-color="#EFEFEF"/>
<stop offset="1" stop-color="#DADADA"/>
</linearGradient>
<linearGradient id="paint1_linear_5615_409" x1="24.3" y1="7.5" x2="20.6687" y2="11.6714" gradientUnits="userSpaceOnUse">
<stop stop-color="#E7E8E7"/>
<stop offset="1" stop-color="#F4F4F4"/>
<stop offset="1" stop-color="white" stop-opacity="0"/>
</linearGradient>
</defs>
</svg>
