<svg width="50" height="62" viewBox="0 0 50 62" fill="none" xmlns="http://www.w3.org/2000/svg">
<g id="Group 42239">
<g id="Group 42238">
<g id="Group 41891">
<path id="Rectangle 12130" d="M32.1005 1H9C4.58172 1 1 4.58172 1 9V53C1 57.4183 4.58172 61 9 61H41C45.4183 61 49 57.4183 49 53V17.8995C49 16.043 48.2625 14.2625 46.9497 12.9497L37.0503 3.05025C35.7375 1.7375 33.957 1 32.1005 1Z" fill="#FFF8F8" stroke="#F2D7D7" stroke-linecap="round" stroke-linejoin="round"/>
<path id="Rectangle 12131" d="M49 16H39C36.2386 16 34 13.7614 34 11V1" stroke="#F2D7D7" stroke-linejoin="round"/>
</g>
<g id="Group 41892">
<path id="Vector 339" d="M7 45H27" stroke="#F2D7D7" stroke-width="1.5" stroke-linecap="round" stroke-linejoin="round"/>
<path id="Vector 340" d="M7 51H21" stroke="#F2D7D7" stroke-width="1.5" stroke-linecap="round" stroke-linejoin="round"/>
</g>
<path id="Vector" d="M34.3314 29.8126C33.8555 29.9601 33.1533 29.9779 32.4047 29.8598C31.598 29.7358 30.7739 29.482 29.9673 29.1041C31.4065 28.8857 32.5265 28.9506 33.4841 29.3048C33.7104 29.3934 34.0818 29.6177 34.3314 29.8126ZM26.2937 28.437C26.2357 28.4547 26.1777 28.4665 26.1196 28.4842C25.7308 28.5964 25.3536 28.7026 24.9938 28.7971L24.5063 28.927C23.5197 29.1868 22.51 29.4524 21.5176 29.7653C21.8948 28.8148 22.2488 27.8584 22.5912 26.9197C22.8466 26.2231 23.1077 25.5146 23.3747 24.818C23.5139 25.0541 23.6532 25.2844 23.8041 25.5205C24.4715 26.595 25.3188 27.5868 26.2937 28.437ZM23.7867 17.7512C23.8505 18.9201 23.6068 20.0477 23.2528 21.1281C22.8117 19.7939 22.6086 18.3179 23.1599 17.1313C23.2992 16.8243 23.4153 16.6649 23.4907 16.5763C23.601 16.7534 23.7519 17.1726 23.7867 17.7512ZM18.6391 32.5696C18.3954 33.0301 18.14 33.4552 17.8847 33.8625C17.2637 34.8367 16.2423 35.8816 15.72 35.8816C15.6678 35.8816 15.604 35.8757 15.5169 35.7754C15.4589 35.7104 15.4473 35.6632 15.4531 35.6041C15.4705 35.244 15.929 34.6064 16.5905 34.016C17.1825 33.4729 17.8615 32.9947 18.6391 32.5696ZM35.9969 29.8657C35.9157 28.6731 33.9832 27.9056 33.9658 27.8997C33.2171 27.6223 32.4047 27.4924 31.4819 27.4924C30.4954 27.4924 29.4276 27.64 28.058 27.9706C26.8393 27.0732 25.7888 25.9515 24.9996 24.7058C24.6514 24.1567 24.338 23.6077 24.0711 23.0705C24.7326 21.4233 25.3304 19.6463 25.2259 17.6626C25.1389 16.0686 24.4483 15 23.5081 15C22.864 15 22.3068 15.4959 21.8542 16.4759C21.0475 18.2235 21.2622 20.4551 22.4809 23.1236C22.0399 24.1981 21.6337 25.3139 21.2332 26.3884C20.7399 27.7285 20.235 29.11 19.6605 30.4265C18.053 31.0878 16.7356 31.8848 15.6388 32.8707C14.9192 33.5142 14.0487 34.4942 14.0022 35.5215C13.979 36.0056 14.1357 36.4484 14.4607 36.8026C14.8031 37.1805 15.2384 37.3753 15.7142 37.3753C17.2811 37.3753 18.7958 35.1378 19.0802 34.6832C19.6547 33.7799 20.1944 32.7704 20.7225 31.6132C22.0573 31.1114 23.4733 30.7395 24.8487 30.3793L25.342 30.2494C25.7134 30.1491 26.0964 30.0428 26.491 29.9306C26.9089 29.8126 27.3383 29.6886 27.7736 29.5764C29.1838 30.5092 30.7043 31.1173 32.1899 31.3416C33.4377 31.5305 34.5461 31.4184 35.2947 31.0169C35.9795 30.6509 36.0143 30.09 35.9969 29.8657Z" fill="#EA4335"/>
</g>
</g>
</svg>
