<svg width="111" height="86" viewBox="0 0 111 86" fill="none" xmlns="http://www.w3.org/2000/svg">
<g id="Group 42265">
<g id="Group 41994">
<g id="Rectangle 11874" filter="url(#filter0_dd_6224_546)">
<rect x="48" y="4.22561" width="62" height="56" rx="3" transform="rotate(15 48 4.22561)" fill="url(#paint0_linear_6224_546)"/>
<rect x="48.1768" y="4.5318" width="61.5" height="55.5" rx="2.75" transform="rotate(15 48.1768 4.5318)" stroke="#EAEAEA" stroke-width="0.5"/>
</g>
<rect id="Rectangle 11870" x="48.5349" y="17.6521" width="54" height="26" rx="2" transform="rotate(15 48.5349 17.6521)" fill="url(#paint1_radial_6224_546)"/>
<g id="Group 41961">
<rect id="Rectangle 20206" x="55.3992" y="11.3846" width="26" height="3" rx="1.5" transform="rotate(15 55.3992 11.3846)" fill="#E7ECFA"/>
<circle id="Ellipse 899" cx="51.6303" cy="11.9276" r="1.5" transform="rotate(15 51.6303 11.9276)" fill="#E7ECFA"/>
</g>
<rect id="Rectangle 20206_2" x="40.9933" y="45.8298" width="32" height="3" rx="1.5" transform="rotate(15 40.9933 45.8298)" fill="#E7ECFA"/>
<rect id="Rectangle 20207" x="39.4404" y="51.6253" width="44" height="3" rx="1.5" transform="rotate(15 39.4404 51.6253)" fill="#E7ECFA"/>
</g>
<g id="Group 41993">
<g id="Rectangle 11874_2" filter="url(#filter1_dd_6224_546)">
<rect x="3" y="23.2256" width="62" height="56" rx="3" transform="rotate(-22 3 23.2256)" fill="url(#paint2_linear_6224_546)"/>
<rect x="3.32545" y="23.3638" width="61.5" height="55.5" rx="2.75" transform="rotate(-22 3.32545 23.3638)" stroke="#EAEAEA" stroke-width="0.5"/>
</g>
<rect id="Rectangle 11870_2" x="11.5074" y="33.6266" width="54" height="26" rx="2" transform="rotate(-22 11.5074 33.6266)" fill="url(#paint3_radial_6224_546)"/>
<g id="Group 41961_2">
<rect id="Rectangle 20206_3" x="13.2177" y="24.4901" width="26" height="3" rx="1.5" transform="rotate(-22 13.2177 24.4901)" fill="#E7ECFA"/>
<circle id="Ellipse 899_2" cx="10.5344" cy="27.192" r="1.5" transform="rotate(-22 10.5344 27.192)" fill="#E7ECFA"/>
</g>
<rect id="Rectangle 20206_4" x="22.4422" y="60.6689" width="32" height="3" rx="1.5" transform="rotate(-22 22.4422 60.6689)" fill="#E7ECFA"/>
<rect id="Rectangle 20207_2" x="24.6898" y="66.232" width="44" height="3" rx="1.5" transform="rotate(-22 24.6898 66.232)" fill="#E7ECFA"/>
</g>
<g id="Rectangle 11874_3" filter="url(#filter2_dd_6224_546)">
<rect x="24.0083" y="8.39504" width="62" height="56" rx="3" fill="url(#paint4_linear_6224_546)"/>
<rect x="24.2583" y="8.64504" width="61.5" height="55.5" rx="2.75" stroke="#EAEAEA" stroke-width="0.5"/>
</g>
<rect id="Rectangle 11870_3" x="28" y="21" width="54" height="26" rx="2" fill="url(#paint5_radial_6224_546)"/>
<g id="Group 41961_3">
<rect id="Rectangle 20206_5" x="33.0083" y="13.395" width="26" height="3" rx="1.5" fill="#E7ECFA"/>
<circle id="Ellipse 899_3" cx="29.5083" cy="14.895" r="1.5" fill="#E7ECFA"/>
</g>
<rect id="Rectangle 20206_6" x="28.0083" y="50.395" width="32" height="3" rx="1.5" fill="#E7ECFA"/>
<rect id="Rectangle 20207_3" x="28.0083" y="56.395" width="44" height="3" rx="1.5" fill="#E7ECFA"/>
<path id="Vector" d="M61.7865 35.7728C61.4404 35.8801 60.9297 35.893 60.3852 35.8071C59.7985 35.717 59.1992 35.5324 58.6126 35.2576C59.6593 35.0987 60.4738 35.1459 61.1702 35.4035C61.3348 35.4679 61.605 35.6311 61.7865 35.7728ZM55.9409 34.7724C55.8987 34.7853 55.8565 34.7938 55.8143 34.8067C55.5315 34.8883 55.2572 34.9656 54.9955 35.0343L54.641 35.1287C53.9234 35.3177 53.1891 35.5109 52.4673 35.7384C52.7417 35.0472 52.9991 34.3516 53.2482 33.6689C53.4339 33.1623 53.6238 32.647 53.8179 32.1404C53.9192 32.3121 54.0205 32.4796 54.1303 32.6513C54.6156 33.4328 55.2318 34.1541 55.9409 34.7724ZM54.1176 27.0009C54.164 27.851 53.9868 28.6711 53.7293 29.4568C53.4085 28.4865 53.2608 27.4131 53.6618 26.55C53.7631 26.3268 53.8475 26.2108 53.9023 26.1464C53.9825 26.2752 54.0923 26.5801 54.1176 27.0009ZM50.3739 37.7779C50.1966 38.1128 50.0109 38.422 49.8252 38.7182C49.3736 39.4267 48.6308 40.1867 48.2509 40.1867C48.213 40.1867 48.1665 40.1824 48.1032 40.1094C48.061 40.0622 48.0526 40.0278 48.0568 39.9849C48.0695 39.7229 48.4029 39.2592 48.884 38.8299C49.3145 38.4349 49.8083 38.0871 50.3739 37.7779ZM62.9978 35.8114C62.9387 34.9441 61.5332 34.3859 61.5206 34.3817C60.9761 34.1799 60.3852 34.0854 59.7141 34.0854C58.9966 34.0854 58.22 34.1927 57.224 34.4332C56.3376 33.7805 55.5737 32.9647 54.9997 32.0588C54.7465 31.6595 54.5186 31.2602 54.3244 30.8694C54.8056 29.6715 55.2403 28.3791 55.1643 26.9365C55.101 25.7772 54.5987 25 53.915 25C53.4465 25 53.0413 25.3607 52.7121 26.0734C52.1255 27.3444 52.2816 28.9674 53.168 30.9081C52.8472 31.6895 52.5517 32.501 52.2605 33.2825C51.9018 34.2571 51.5346 35.2618 51.1167 36.2193C49.9476 36.7002 48.9895 37.2799 48.1918 37.9969C47.6685 38.4649 47.0354 39.1777 47.0016 39.9248C46.9848 40.2768 47.0987 40.5989 47.3351 40.8565C47.5841 41.1313 47.9006 41.273 48.2467 41.273C49.3863 41.273 50.4879 39.6457 50.6947 39.3151C51.1125 38.6581 51.505 37.9239 51.8891 37.0824C52.8599 36.7174 53.8897 36.4469 54.89 36.185L55.2487 36.0905C55.5188 36.0175 55.7974 35.9402 56.0844 35.8587C56.3883 35.7728 56.7006 35.6826 57.0172 35.601C58.0428 36.2794 59.1486 36.7217 60.229 36.8848C61.1365 37.0222 61.9426 36.9407 62.4871 36.6487C62.9851 36.3825 63.0104 35.9746 62.9978 35.8114Z" fill="#EA4335"/>
</g>
<defs>
<filter id="filter0_dd_6224_546" x="31.1796" y="4.8991" width="79.0343" height="79.7916" filterUnits="userSpaceOnUse" color-interpolation-filters="sRGB">
<feFlood flood-opacity="0" result="BackgroundImageFix"/>
<feColorMatrix in="SourceAlpha" type="matrix" values="0 0 0 0 0 0 0 0 0 0 0 0 0 0 0 0 0 0 127 0" result="hardAlpha"/>
<feMorphology radius="5" operator="erode" in="SourceAlpha" result="effect1_dropShadow_6224_546"/>
<feOffset dy="8"/>
<feGaussianBlur stdDeviation="4"/>
<feComposite in2="hardAlpha" operator="out"/>
<feColorMatrix type="matrix" values="0 0 0 0 0 0 0 0 0 0 0 0 0 0 0 0 0 0 0.15 0"/>
<feBlend mode="normal" in2="BackgroundImageFix" result="effect1_dropShadow_6224_546"/>
<feColorMatrix in="SourceAlpha" type="matrix" values="0 0 0 0 0 0 0 0 0 0 0 0 0 0 0 0 0 0 127 0" result="hardAlpha"/>
<feOffset dx="2" dy="2"/>
<feComposite in2="hardAlpha" operator="out"/>
<feColorMatrix type="matrix" values="0 0 0 0 0 0 0 0 0 0 0 0 0 0 0 0 0 0 0.02 0"/>
<feBlend mode="normal" in2="effect1_dropShadow_6224_546" result="effect2_dropShadow_6224_546"/>
<feBlend mode="normal" in="SourceGraphic" in2="effect2_dropShadow_6224_546" result="shape"/>
</filter>
<filter id="filter1_dd_6224_546" x="0.904572" y="0.904579" width="82.6542" height="84.3387" filterUnits="userSpaceOnUse" color-interpolation-filters="sRGB">
<feFlood flood-opacity="0" result="BackgroundImageFix"/>
<feColorMatrix in="SourceAlpha" type="matrix" values="0 0 0 0 0 0 0 0 0 0 0 0 0 0 0 0 0 0 127 0" result="hardAlpha"/>
<feMorphology radius="5" operator="erode" in="SourceAlpha" result="effect1_dropShadow_6224_546"/>
<feOffset dy="8"/>
<feGaussianBlur stdDeviation="4"/>
<feComposite in2="hardAlpha" operator="out"/>
<feColorMatrix type="matrix" values="0 0 0 0 0 0 0 0 0 0 0 0 0 0 0 0 0 0 0.15 0"/>
<feBlend mode="normal" in2="BackgroundImageFix" result="effect1_dropShadow_6224_546"/>
<feColorMatrix in="SourceAlpha" type="matrix" values="0 0 0 0 0 0 0 0 0 0 0 0 0 0 0 0 0 0 127 0" result="hardAlpha"/>
<feOffset dx="2" dy="2"/>
<feComposite in2="hardAlpha" operator="out"/>
<feColorMatrix type="matrix" values="0 0 0 0 0 0 0 0 0 0 0 0 0 0 0 0 0 0 0.02 0"/>
<feBlend mode="normal" in2="effect1_dropShadow_6224_546" result="effect2_dropShadow_6224_546"/>
<feBlend mode="normal" in="SourceGraphic" in2="effect2_dropShadow_6224_546" result="shape"/>
</filter>
<filter id="filter2_dd_6224_546" x="21.0083" y="8.39504" width="68" height="67" filterUnits="userSpaceOnUse" color-interpolation-filters="sRGB">
<feFlood flood-opacity="0" result="BackgroundImageFix"/>
<feColorMatrix in="SourceAlpha" type="matrix" values="0 0 0 0 0 0 0 0 0 0 0 0 0 0 0 0 0 0 127 0" result="hardAlpha"/>
<feMorphology radius="5" operator="erode" in="SourceAlpha" result="effect1_dropShadow_6224_546"/>
<feOffset dy="8"/>
<feGaussianBlur stdDeviation="4"/>
<feComposite in2="hardAlpha" operator="out"/>
<feColorMatrix type="matrix" values="0 0 0 0 0 0 0 0 0 0 0 0 0 0 0 0 0 0 0.15 0"/>
<feBlend mode="normal" in2="BackgroundImageFix" result="effect1_dropShadow_6224_546"/>
<feColorMatrix in="SourceAlpha" type="matrix" values="0 0 0 0 0 0 0 0 0 0 0 0 0 0 0 0 0 0 127 0" result="hardAlpha"/>
<feOffset dx="2" dy="2"/>
<feComposite in2="hardAlpha" operator="out"/>
<feColorMatrix type="matrix" values="0 0 0 0 0 0 0 0 0 0 0 0 0 0 0 0 0 0 0.02 0"/>
<feBlend mode="normal" in2="effect1_dropShadow_6224_546" result="effect2_dropShadow_6224_546"/>
<feBlend mode="normal" in="SourceGraphic" in2="effect2_dropShadow_6224_546" result="shape"/>
</filter>
<linearGradient id="paint0_linear_6224_546" x1="79" y1="4.22561" x2="79" y2="60.2256" gradientUnits="userSpaceOnUse">
<stop stop-color="white"/>
<stop offset="1" stop-color="white"/>
</linearGradient>
<radialGradient id="paint1_radial_6224_546" cx="0" cy="0" r="1" gradientUnits="userSpaceOnUse" gradientTransform="translate(67.2644 17.6521) rotate(74.5152) scale(26.5443 37.9596)">
<stop stop-color="#FFF8F8"/>
<stop offset="1" stop-color="#FDEFEF"/>
</radialGradient>
<linearGradient id="paint2_linear_6224_546" x1="34" y1="23.2256" x2="34" y2="79.2256" gradientUnits="userSpaceOnUse">
<stop stop-color="white"/>
<stop offset="1" stop-color="white"/>
</linearGradient>
<radialGradient id="paint3_radial_6224_546" cx="0" cy="0" r="1" gradientUnits="userSpaceOnUse" gradientTransform="translate(30.237 33.6266) rotate(74.5152) scale(26.5443 37.9596)">
<stop stop-color="#FFF8F8"/>
<stop offset="1" stop-color="#FDEFEF"/>
</radialGradient>
<linearGradient id="paint4_linear_6224_546" x1="55.0083" y1="8.39504" x2="55.0083" y2="64.395" gradientUnits="userSpaceOnUse">
<stop stop-color="white"/>
<stop offset="1" stop-color="white"/>
</linearGradient>
<radialGradient id="paint5_radial_6224_546" cx="0" cy="0" r="1" gradientUnits="userSpaceOnUse" gradientTransform="translate(46.7295 21) rotate(74.5152) scale(26.5443 37.9596)">
<stop stop-color="#FFF8F8"/>
<stop offset="1" stop-color="#FDEFEF"/>
</radialGradient>
</defs>
</svg>
